<?xml version="1.0" encoding="UTF-8" standalone="no"?>
<!-- Created with Inkscape (http://www.inkscape.org/) -->

<svg
   xmlns:dc="http://purl.org/dc/elements/1.1/"
   xmlns:cc="http://creativecommons.org/ns#"
   xmlns:rdf="http://www.w3.org/1999/02/22-rdf-syntax-ns#"
   xmlns:svg="http://www.w3.org/2000/svg"
   xmlns="http://www.w3.org/2000/svg"
   xmlns:sodipodi="http://sodipodi.sourceforge.net/DTD/sodipodi-0.dtd"
   xmlns:inkscape="http://www.inkscape.org/namespaces/inkscape"
   width="205.57043"
   height="109.80665"
   viewBox="0 0 54.390509 29.05301"
   version="1.1"
   id="svg8"
   inkscape:version="0.92.2 (5c3e80d, 2017-08-06)"
   sodipodi:docname="cookie.svg">
  <defs
     id="defs2">
    <clipPath
       clipPathUnits="userSpaceOnUse"
       id="clipPath1922">
      <circle
         style="fill:none;fill-opacity:1;stroke:#3bd58f;stroke-width:3.99999976;stroke-linecap:round;stroke-linejoin:round;stroke-miterlimit:4;stroke-dasharray:none;stroke-opacity:1"
         id="circle1924"
         cx="231.67421"
         cy="-119.50455"
         r="50.916668" />
    </clipPath>
  </defs>
  <sodipodi:namedview
     id="base"
     pagecolor="#ffffff"
     bordercolor="#666666"
     borderopacity="1.0"
     inkscape:pageopacity="0.0"
     inkscape:pageshadow="2"
     inkscape:zoom="0.65481034"
     inkscape:cx="-99.566988"
     inkscape:cy="356.97317"
     inkscape:document-units="mm"
     inkscape:current-layer="svg8"
     showgrid="false"
     units="px"
     inkscape:window-width="2560"
     inkscape:window-height="1416"
     inkscape:window-x="0"
     inkscape:window-y="0"
     inkscape:window-maximized="1"
     fit-margin-top="0"
     fit-margin-left="0"
     fit-margin-right="0"
     fit-margin-bottom="0" />
  <metadata
     id="metadata5">
    <rdf:RDF>
      <cc:Work
         rdf:about="">
        <dc:format>image/svg+xml</dc:format>
        <dc:type
           rdf:resource="http://purl.org/dc/dcmitype/StillImage" />
        <dc:title></dc:title>
      </cc:Work>
    </rdf:RDF>
  </metadata>
  <g
     style="stroke:none;stroke-width:0.71770227"
     id="g288"
     transform="matrix(1.3933355,0,0,1.3933355,-283.96242,-318.65622)">
    <path
       id="path282"
       d="m 242.83665,238.30578 c 0,-5.38656 -8.57365,-9.6055 -19.5181,-9.6055 -10.94487,0 -19.51809,4.21939 -19.51809,9.6055 0,0.13311 0.009,0.26459 0.0195,0.39644 l -0.009,0.0962 c -0.005,0.13787 3.7e-4,0.18998 3.7e-4,0.28931 0.004,0.70786 0.15224,1.42481 0.41768,2.09493 0.53307,1.34848 1.48642,2.48791 2.58073,3.41133 2.20684,1.85682 4.9294,3.03962 7.74911,3.81557 1.41095,0.40252 2.86396,0.67446 4.33042,0.85317 0.73258,0.0959 1.47036,0.15917 2.20858,0.20906 0.36824,0.0277 0.74819,0.0374 1.12164,0.0569 l 1.08347,0.023 c 1.50983,-0.0115 2.97022,-0.10754 4.44232,-0.2906 1.46733,-0.17525 2.91861,-0.45586 4.32955,-0.85664 2.81971,-0.77422 5.53923,-1.96092 7.74694,-3.81471 1.09215,-0.92427 2.04637,-2.06197 2.57856,-3.40872 0.30708,-0.74992 0.43504,-1.55971 0.40641,-2.34781 0.0195,-0.17523 0.0295,-0.35046 0.0295,-0.52742 z"
       style="fill:#dda85f;fill-opacity:1;stroke:none;stroke-width:0.18989202"
       inkscape:connector-curvature="0" />
    <path
       id="path284"
       d="m 223.31855,246.8005 c -9.76728,0 -18.04555,-3.7284 -18.39081,-8.20499 l 0.002,-0.2147 0.0225,-0.19604 c 0.0108,-0.12967 0.0265,-0.26241 0.0607,-0.40208 0.0277,-0.13754 0.0529,-0.27629 0.0998,-0.40943 0.30406,-1.07003 0.98069,-2.00906 1.74579,-2.80151 3.05567,-2.79282 9.36435,-4.76111 16.45983,-4.76111 7.12107,0 13.451,1.98173 16.49279,4.79018 0.75296,0.78549 1.41658,1.71368 1.71759,2.77113 0.1158,0.38515 0.17436,0.78377 0.1826,1.18366 -0.29841,4.49481 -8.59663,8.24489 -18.39298,8.24489 z"
       style="fill:#f2cb7d;fill-opacity:1;stroke:none;stroke-width:0.18989202"
       inkscape:connector-curvature="0" />
    <path
       d="m 211.50924,240.28188 c -0.59938,1.39707 -3.37226,0.38179 -2.7084,-1.07378 0.76531,-1.01095 2.96135,-0.25728 2.7084,1.07378 z m 6.50863,-1.51807 c -1.34096,-0.71805 -0.0896,-3.39256 1.30371,-2.60583 0.94048,0.84972 -3.2e-4,2.97108 -1.30371,2.60583 z m 15.97838,2.80496 c 0.50174,1.43465 -2.22801,2.5597 -2.72258,1.03849 -0.11924,-1.26309 2.00915,-2.19006 2.72258,-1.03849 z m 0.73866,-2.82318 c -0.59902,1.3977 -3.3724,0.38263 -2.70853,-1.07335 0.76534,-1.01093 2.96037,-0.25739 2.70853,1.07335 z m -6.56069,-2.76723 c -0.46071,1.5301 -2.57417,0.001 -1.35694,-0.97266 0.65838,-0.61151 1.66763,0.17138 1.35694,0.97266 z m -10.67683,-3.65249 c 0.46069,-1.53108 2.57351,-0.003 1.35733,0.97158 -0.65748,0.61041 -1.66851,-0.16994 -1.35733,-0.97158 z m -1.67856,9.1978 c -0.46057,1.53044 -2.57367,0.002 -1.3565,-0.97162 0.6581,-0.61195 1.66742,0.17014 1.3565,0.97162 z m 10.34416,2.99493 c -0.46075,1.52966 -2.57396,0.001 -1.35694,-0.97244 0.65858,-0.61161 1.66714,0.171 1.35694,0.97244 z m -2.89041,-6.33557 c -0.46082,1.52992 -2.5738,0.002 -1.35713,-0.9721 0.65859,-0.6111 1.66761,0.17014 1.35713,0.9721 z m -14.50932,-1.27907 c -0.46118,1.52982 -2.57362,9.5e-4 -1.3565,-0.9727 0.65882,-0.61219 1.66652,0.17153 1.3565,0.9727 z m 12.53192,7.48409 c -0.59911,1.39766 -3.37231,0.38144 -2.7084,-1.07422 0.76579,-1.01139 2.96036,-0.25651 2.7084,1.07422 z m -8.24184,-8.58449 c -1.2768,0.70907 -2.94367,-0.96667 -1.57947,-2.01317 0.80403,-0.86754 2.91373,-0.74918 2.7924,0.74333 -0.11372,0.61658 -0.64659,1.06817 -1.21293,1.26984 z m 15.12349,5.09422 c -0.16927,1.72554 -3.23591,1.72551 -3.40526,0 0.13643,-1.72465 3.2715,-1.71738 3.40526,0 z m -4.22893,-7.33836 c -1.45386,0.14028 -2.31394,-2.06166 -0.64511,-2.47709 1.08374,-0.47459 2.96955,0.47587 2.26353,1.79621 -0.34991,0.52022 -1.01871,0.72187 -1.61842,0.68088 z m 15.87906,3.5679 c -0.28621,1.70959 -3.34421,1.5014 -3.39745,-0.23074 0.25318,-1.71061 3.38035,-1.49152 3.39745,0.23074 z m -8.60748,-2.60891 c -1.14987,-0.31618 -1.45596,-2.34701 0.15823,-1.89382 0.94294,0.0502 2.58727,1.59817 1.212,2.17865 -0.47298,0.0858 -0.95609,-0.0629 -1.37023,-0.28483 z"
       style="fill:#6d4934;fill-opacity:1;stroke:none;stroke-width:0.18989202"
       id="path286"
       inkscape:connector-curvature="0" />
  </g>
</svg>
